<svg width="475" height="558" viewBox="0 0 475 558" fill="none" xmlns="http://www.w3.org/2000/svg">
<g clip-path="url(#clip0_1659_150247)">
<rect x="453.465" y="18.1422" width="12.256" height="11.8503" transform="rotate(-102 453.465 18.1422)" fill="#FFCF24" fill-opacity="0.45"/>
<rect x="-7.95703" y="74.6836" width="18.6964" height="7.02" transform="rotate(24 -7.95703 74.6836)" fill="#FFEBA6" fill-opacity="0.9"/>
<circle cx="424.016" cy="15.7796" r="6.10225" fill="#926EDE" fill-opacity="0.9"/>
<circle cx="425.492" cy="51.9262" r="4.49216" fill="#724EC9" fill-opacity="0.35"/>
<path d="M59.0556 13.3328L54.0917 7.41697L58.184 0.867896L65.6772 2.73614L66.2158 10.4399L59.0556 13.3328Z" fill="#FFCF24" fill-opacity="0.9"/>
<path d="M449.325 129.889L450.223 137.209L444.334 141.646L437.546 138.765L436.647 131.446L442.537 127.008L449.325 129.889Z" fill="#FFCF24" fill-opacity="0.65"/>
<path d="M300.317 2.9419L299.226 13.3135L288.855 12.2234L289.945 1.85181L300.317 2.9419Z" fill="#D6C9FD" fill-opacity="0.35"/>
<path d="M29.9118 6.51226L28.6152 12.1287L23.1029 13.8139L18.8873 9.8828L20.184 4.26641L25.6962 2.58114L29.9118 6.51226Z" fill="#D6C9FD" fill-opacity="0.85"/>
<path d="M10.5276 322.111L2.6537 320.002L4.76352 312.128L12.6375 314.237L10.5276 322.111Z" fill="#FFCF24" fill-opacity="0.9"/>
<path d="M396.049 6.90962L397.65 4.10117L396.561 1.05728L399.369 2.65879L402.413 1.56929L400.811 4.37775L401.901 7.42163L399.092 5.82012L396.049 6.90962Z" fill="#FFCF24" fill-opacity="0.9"/>
<path d="M474.749 49.112L468.554 50.5771L465.634 56.2334L464.169 50.0386L458.513 47.1183L464.708 45.6532L467.628 39.9969L469.093 46.1917L474.749 49.112Z" fill="#724EC9" fill-opacity="0.75"/>
<rect x="-7.83984" y="263.882" width="24.8157" height="13.02" transform="rotate(-9 -7.83984 263.882)" fill="#DCBCFA" fill-opacity="0.85"/>
<rect x="-4" y="151" width="27.8157" height="10.02" transform="rotate(37 -4 151)" fill="#755FFE" fill-opacity="0.9"/>
<rect x="325" y="6" width="22.8157" height="14.02" transform="rotate(-179 325 6)" fill="#4BC8EF" fill-opacity="0.45"/>
<rect x="489.605" y="408.468" width="20.8157" height="13.02" transform="rotate(125 489.605 408.468)" fill="#9DED1A" fill-opacity="0.9"/>
<rect x="70.7969" y="24.0275" width="18.8157" height="11.02" transform="rotate(-84 70.7969 24.0275)" fill="#C9FCBE" fill-opacity="0.45"/>
<rect x="487" y="300.069" width="28.8157" height="10.02" transform="rotate(-144 487 300.069)" fill="#C9FCBE" fill-opacity="0.9"/>
<circle cx="243.077" cy="1.07702" r="2.07702" fill="#FC9E1C" fill-opacity="0.45"/>
<path d="M15.0662 108.255L22.1683 109.895L20.5286 116.997L13.4265 115.357L15.0662 108.255Z" fill="#FFED36"/>
<path d="M352.846 -9.08795L359.468 -8.50865L360.963 -2.03228L355.266 1.39103L350.249 -2.96961L352.846 -9.08795Z" fill="#F54721" fill-opacity="0.35"/>
<path d="M461.086 72.2315L464.422 73.9315L467.07 71.2837L466.484 74.9822L469.821 76.6822L466.122 77.268L465.537 80.9666L463.837 77.6301L460.138 78.2159L462.786 75.568L461.086 72.2315Z" fill="#FF21FB" fill-opacity="0.45"/>
<path d="M8.10138 60.6944L4.21733 65.211L5.11775 71.0995L0.601156 67.2154L-5.28737 68.1159L-1.40332 63.5993L-2.30375 57.7108L2.21285 61.5948L8.10138 60.6944Z" fill="#FC9E1C" fill-opacity="0.85"/>
<path d="M467.892 114.038L470.484 111.508L470.251 107.893L472.781 110.485L476.396 110.252L473.803 112.782L474.037 116.396L471.507 113.804L467.892 114.038Z" fill="#FC9E1C" fill-opacity="0.45"/>
<path d="M240.979 535.617L239.597 539.87L243.214 542.498L238.743 542.498L237.361 546.75L235.98 542.498L231.509 542.498L235.126 539.87L233.744 535.617L237.361 538.245L240.979 535.617Z" fill="#9AF5FC" fill-opacity="0.45"/>
<path d="M1.81467 341.602L3.46706 336.538L-1.54064 334.723L3.671 333.622L2.73945 328.377L6.29869 332.34L10.3748 328.911L8.72245 333.975L13.7301 335.79L8.51851 336.891L9.45006 342.136L5.89082 338.173L1.81467 341.602Z" fill="#BA3E03"/>
<path d="M432.335 217.595L432.56 212.811L429.075 209.526L433.859 209.751L437.144 206.266L436.919 211.05L440.405 214.335L435.62 214.11L432.335 217.595Z" fill="#DCBCFA" fill-opacity="0.45"/>
</g>
<defs>
<clipPath id="clip0_1659_150247">
<rect width="475" height="559" fill="white" transform="translate(0 -1)"/>
</clipPath>
</defs>
</svg>
